<svg width="20" height="20" viewBox="0 0 20 20" fill="none" xmlns="http://www.w3.org/2000/svg">
<path d="M14.6666 4.66669H16M5.99996 0.666687H14C16.9455 0.666687 19.3333 3.0545 19.3333 6.00002V14C19.3333 16.9455 16.9455 19.3334 14 19.3334H5.99996C3.05444 19.3334 0.666626 16.9455 0.666626 14V6.00002C0.666626 3.0545 3.05444 0.666687 5.99996 0.666687ZM9.99996 14C7.79082 14 5.99996 12.2092 5.99996 10C5.99996 7.79088 7.79082 6.00002 9.99996 6.00002C12.2091 6.00002 14 7.79088 14 10C14 12.2092 12.2091 14 9.99996 14Z" stroke="white"/>
</svg>
