<svg width="20" height="20" viewBox="0 0 20 20" fill="none" xmlns="http://www.w3.org/2000/svg">
<path d="M6.29238 0.666687H3.33341C1.86066 0.666687 0.666748 1.86059 0.666748 3.33335V6.00002C0.666748 13.3638 6.63628 19.3334 14.0001 19.3334H16.6667C18.1395 19.3334 19.3334 18.1394 19.3334 16.6667V14.8241C19.3334 14.319 19.0481 13.8574 18.5964 13.6315L15.3751 12.0209C14.6494 11.658 13.7705 12.022 13.5139 12.7918L13.1169 13.9829C12.8597 14.7544 12.0683 15.2137 11.2709 15.0542C8.07913 14.4158 5.58427 11.921 4.94592 8.72924C4.78643 7.93179 5.24571 7.14036 6.01723 6.88319L7.4954 6.39047C8.15636 6.17015 8.53627 5.47809 8.36729 4.80218L7.5859 1.67664C7.43751 1.08308 6.9042 0.666687 6.29238 0.666687Z" stroke="white"/>
</svg>
