<svg width="20" height="20" viewBox="0 0 20 20" fill="none" xmlns="http://www.w3.org/2000/svg">
<path d="M12.6666 7.33335C12.258 6.5162 11.4229 6.00002 10.5092 6.00002H9.33329C8.22872 6.00002 7.33329 6.89545 7.33329 8.00002C7.33329 9.10459 8.22872 10 9.33329 10H10.6666C11.7712 10 12.6666 10.8955 12.6666 12C12.6666 13.1046 11.7712 14 10.6666 14H9.49067C8.57707 14 7.74187 13.4838 7.33329 12.6667M18.4389 11.1208C18.4884 10.7532 18.5217 10.3807 18.5217 10C18.5217 5.29359 14.7056 1.47828 9.99996 1.47828C9.61932 1.47828 9.24679 1.51237 8.87914 1.56025C8.03995 0.996194 7.02871 0.666687 5.94199 0.666687C3.02837 0.666687 0.666626 3.02843 0.666626 5.94205C0.666626 7.02959 0.996144 8.04002 1.5602 8.87921C1.51151 9.24686 1.47822 9.61938 1.47822 10C1.47822 14.7065 5.29352 18.5218 9.99996 18.5218C10.3798 18.5218 10.7523 18.4885 11.12 18.4398C11.96 19.0038 12.9704 19.3334 14.0579 19.3334C16.9707 19.3334 19.3333 16.9716 19.3333 14.058C19.3333 12.9705 19.003 11.96 18.4389 11.1208Z" stroke="white" stroke-linejoin="round"/>
</svg>
