<svg width="20" height="20" viewBox="0 0 20 20" fill="none" xmlns="http://www.w3.org/2000/svg">
<path d="M19.3045 2L19.8034 1.96692C19.7901 1.76635 19.658 1.59324 19.468 1.5275C19.2781 1.46176 19.0672 1.51616 18.9328 1.6656L19.3045 2ZM18.4732 5.94521C18.4732 5.66906 18.2493 5.44521 17.9732 5.44521C17.6971 5.44521 17.4732 5.66906 17.4732 5.94521H18.4732ZM9.98555 6.0548L9.48555 6.0548L9.48555 6.0548L9.98555 6.0548ZM9.98556 7.33333L10.4856 7.33333L10.4856 7.33333L9.98556 7.33333ZM0.666626 16.6667V16.1667C0.446358 16.1667 0.252037 16.3108 0.188132 16.5216C0.124226 16.7324 0.205793 16.9602 0.388979 17.0825L0.666626 16.6667ZM1.9979 2L2.46616 1.82468C2.39639 1.63834 2.22278 1.5111 2.02408 1.50069C1.82539 1.49027 1.63942 1.59865 1.55055 1.77667L1.9979 2ZM7.323 14L7.67683 14.3533C7.79919 14.2307 7.84943 14.0536 7.80961 13.885C7.7698 13.7165 7.6456 13.5806 7.48134 13.5257L7.323 14ZM16.9547 3.29784L16.5838 3.63318L16.764 3.83243L17.0296 3.7922L16.9547 3.29784ZM18.8056 2.03308C18.8749 3.07852 18.8127 3.73487 18.6334 4.24046C18.4577 4.7356 18.1521 5.13612 17.6273 5.63899L18.3191 6.36101C18.8944 5.80973 19.3254 5.28083 19.5758 4.57479C19.8226 3.8792 19.876 3.06262 19.8034 1.96692L18.8056 2.03308ZM18.4732 6.91666V5.94521H17.4732V6.91666H18.4732ZM9.48555 6.0548L9.48556 7.33333L10.4856 7.33333L10.4856 6.05479L9.48555 6.0548ZM9.48556 7.33333L9.48555 8L10.4856 8L10.4856 7.33333L9.48556 7.33333ZM14.0341 1.5C11.5213 1.5 9.48555 3.53998 9.48555 6.0548H10.4856C10.4856 4.09081 12.075 2.5 14.0341 2.5V1.5ZM17.4732 6.91666C17.4732 12.7624 12.7418 17.5 6.90697 17.5V18.5C13.2956 18.5 18.4732 13.3132 18.4732 6.91666H17.4732ZM1.52965 2.17532C2.23943 4.071 4.91247 7.83333 9.98556 7.83333V6.83333C5.47345 6.83333 3.08765 3.48455 2.46616 1.82468L1.52965 2.17532ZM1.55055 1.77667C0.171005 4.54002 -0.0318728 7.19861 0.957696 9.45111C1.94553 11.6997 4.07785 13.4437 7.16467 14.4743L7.48134 13.5257C4.57741 12.5563 2.71591 10.967 1.87324 9.04889C1.03231 7.13472 1.16225 4.79331 2.44525 2.22333L1.55055 1.77667ZM6.96918 13.6467C6.14519 14.472 3.69149 16.1667 0.666626 16.1667V17.1667C4.03188 17.1667 6.72581 15.3058 7.67683 14.3533L6.96918 13.6467ZM17.3256 2.9625C16.5141 2.06507 15.3397 1.5 14.0341 1.5V2.5C15.0451 2.5 15.9538 2.93638 16.5838 3.63318L17.3256 2.9625ZM17.0296 3.7922C18.004 3.64463 18.9588 3.13186 19.6762 2.3344L18.9328 1.6656C18.3641 2.29766 17.6164 2.69192 16.8798 2.80348L17.0296 3.7922ZM0.388979 17.0825C2.52889 18.5113 4.77228 18.5 6.90697 18.5V17.5C4.73924 17.5 2.79818 17.4887 0.944273 16.2508L0.388979 17.0825Z" fill="white"/>
</svg>
