<svg width="20" height="20" fill="none" xmlns="http://www.w3.org/2000/svg"><path d="m19.305 2 .498-.033a.5.5 0 0 0-.87-.301l.372.334Zm-.832 3.945a.5.5 0 0 0-1 0h1Zm-8.487.11h-.5.5Zm0 1.278h.5-.5Zm-9.32 9.334v-.5a.5.5 0 0 0-.277.915l.278-.415ZM1.999 2l.468-.175a.5.5 0 0 0-.915-.048L1.998 2Zm5.325 12 .354.353a.5.5 0 0 0-.196-.827L7.323 14Zm9.632-10.702-.371.335.18.2.266-.04-.075-.495Zm1.85-1.265c.07 1.046.008 1.702-.172 2.207-.175.496-.48.896-1.006 1.399l.692.722c.575-.551 1.006-1.08 1.257-1.786.247-.696.3-1.512.227-2.608l-.997.066Zm-.332 4.884v-.972h-1v.972h1Zm-8.987-.862v1.278h1V6.055h-1Zm0 1.278V8h1v-.667h-1ZM14.034 1.5a4.552 4.552 0 0 0-4.548 4.555h1A3.552 3.552 0 0 1 14.034 2.5v-1Zm3.44 5.417c0 5.845-4.732 10.583-10.567 10.583v1c6.389 0 11.566-5.187 11.566-11.583h-1ZM1.53 2.175c.71 1.896 3.382 5.658 8.456 5.658v-1c-4.513 0-6.898-3.348-7.52-5.008l-.936.35Zm.02-.398C.172 4.54-.031 7.199.959 9.45c.988 2.249 3.12 3.993 6.207 5.023l.316-.948c-2.904-.97-4.765-2.559-5.608-4.477-.84-1.914-.71-4.256.572-6.826l-.894-.446Zm5.42 11.87c-.825.825-3.279 2.52-6.303 2.52v1c3.365 0 6.059-1.861 7.01-2.814l-.708-.706ZM17.325 2.963A4.427 4.427 0 0 0 14.034 1.5v1c1.011 0 1.92.436 2.55 1.133l.742-.67Zm-.296.83c.974-.148 1.929-.661 2.646-1.459l-.743-.668c-.569.632-1.317 1.026-2.053 1.137l.15.99ZM.389 17.082C2.529 18.51 4.772 18.5 6.907 18.5v-1c-2.168 0-4.109-.011-5.963-1.25l-.555.832Z" fill="#fff"/></svg>