<svg width="20" height="20" fill="none" xmlns="http://www.w3.org/2000/svg"><path d="m2.533 15.6.447.224.139-.277-.186-.247-.4.3ZM4.4 17.468l.3-.4-.247-.186-.277.139.224.447ZM.667 19.333.22 19.11a.5.5 0 0 0 .67.67l-.223-.447ZM6 6l-.277-.416A.5.5 0 0 0 5.5 6H6Zm8 8v.5a.5.5 0 0 0 .416-.223L14 14ZM8.34 6.7l.492-.081-.493.082Zm.185 1.116-.493.083.493-.083Zm-.576 1.329.278.416-.278-.416Zm5.35 2.516.083-.493-.083.493Zm-1.115-.186-.082.493.082-.493Zm-1.329.576-.416-.278.416.278ZM.167 10c0 2.213.732 4.257 1.966 5.9l.8-.6A8.792 8.792 0 0 1 1.167 10h-1ZM10 .167C4.57.167.167 4.569.167 10h1A8.833 8.833 0 0 1 10 1.167v-1ZM19.833 10c0-5.43-4.402-9.833-9.833-9.833v1A8.833 8.833 0 0 1 18.833 10h1ZM10 19.833c5.43 0 9.833-4.402 9.833-9.833h-1A8.833 8.833 0 0 1 10 18.833v1Zm-5.9-1.966a9.792 9.792 0 0 0 5.9 1.966v-1a8.792 8.792 0 0 1-5.3-1.766l-.6.8ZM.89 19.78l3.733-1.867-.447-.894-3.733 1.866.447.895Zm1.196-4.404L.22 19.11l.894.447 1.866-3.733-.894-.447ZM5.5 6v1.333h1V6h-1Zm7.167 8.5H14v-1h-1.333v1ZM5.5 7.333a7.167 7.167 0 0 0 7.167 7.167v-1A6.167 6.167 0 0 1 6.5 7.333h-1Zm.777-.917.285-.19-.555-.831-.284.189.554.832Zm1.569.367.186 1.115.986-.164-.186-1.115-.986.164Zm-.174 1.946-1.283.855.555.832 1.283-.855-.555-.832Zm.36-.83a.833.833 0 0 1-.36.83l.555.832c.6-.4.91-1.115.791-1.827l-.986.165Zm-1.47-1.672a.833.833 0 0 1 1.284.556l.986-.164a1.833 1.833 0 0 0-2.825-1.224l.555.832Zm7.854 8.05.19-.284-.832-.555-.19.285.832.554Zm-1.034-3.11-1.116-.185-.164.986 1.115.186.165-.986Zm-2.943.606-.855 1.283.832.555.855-1.283-.832-.555Zm1.827-.791a1.833 1.833 0 0 0-1.827.791l.832.555a.833.833 0 0 1 .83-.36l.165-.986Zm2.34 3.011a1.833 1.833 0 0 0-1.224-2.825l-.165.986c.597.1.892.781.556 1.284l.833.555Z" fill="#fff"/></svg>