<svg width="124" height="32" fill="none" xmlns="http://www.w3.org/2000/svg"><path d="m49.872 22-2.784-5.248 3.008-1.76L54.128 22h-4.256Zm-6.976 0V10.8h3.776V22h-3.776Zm2.688-4.048v-2.976h4.24v2.976h-4.24Zm4.88-1.152-3.472-.352 3.216-5.648h3.936l-3.68 6Zm4.058-6.016h4.32l1.632 2.64 1.632-2.64h4.368l-3.632 5.344L66.81 22h-4.448l-1.888-2.896L58.618 22h-4.336l3.936-5.696-3.696-5.52ZM72.648 22V10.8h5.68c1.387 0 2.459.256 3.216.768.768.512 1.152 1.232 1.152 2.16 0 .907-.352 1.627-1.056 2.16-.704.523-1.653.784-2.848.784l.32-.864c1.27 0 2.267.25 2.992.752.726.501 1.088 1.232 1.088 2.192 0 .992-.394 1.781-1.184 2.368-.79.587-1.914.88-3.376.88h-5.984Zm3.712-2.64h2.096c.31 0 .539-.075.688-.224.16-.16.24-.384.24-.672 0-.288-.08-.501-.24-.64-.15-.15-.378-.224-.688-.224H76.36v1.76Zm0-4.256h1.6c.32 0 .555-.07.704-.208.15-.139.224-.341.224-.608 0-.277-.074-.485-.224-.624-.15-.15-.384-.224-.704-.224h-1.6v1.664Zm12.755 7.056c-1.067 0-2-.197-2.8-.592-.79-.395-1.403-.933-1.84-1.616-.438-.693-.656-1.472-.656-2.336 0-.885.213-1.67.64-2.352a4.52 4.52 0 0 1 1.776-1.6c.757-.384 1.605-.576 2.544-.576.864 0 1.659.17 2.384.512a4.13 4.13 0 0 1 1.76 1.52c.448.672.672 1.504.672 2.496 0 .128-.005.272-.016.432-.01.15-.021.288-.032.416H86.81V16.72h4.816l-1.36.464c0-.341-.064-.63-.192-.864a1.275 1.275 0 0 0-.496-.56 1.378 1.378 0 0 0-.768-.208c-.299 0-.56.07-.784.208a1.273 1.273 0 0 0-.496.56c-.118.235-.176.523-.176.864v.544c0 .373.075.693.224.96.15.267.363.47.64.608.277.128.613.192 1.008.192.405 0 .736-.053.992-.16a3.77 3.77 0 0 0 .832-.48l1.888 1.904a4.22 4.22 0 0 1-1.584 1.056c-.619.235-1.365.352-2.24.352Zm10.372 0c-1.003 0-1.893-.192-2.672-.576-.779-.384-1.392-.917-1.84-1.6-.438-.693-.656-1.483-.656-2.368 0-.885.218-1.67.656-2.352.448-.683 1.061-1.216 1.84-1.6.779-.384 1.67-.576 2.672-.576 1.067 0 1.979.23 2.736.688.757.459 1.28 1.093 1.568 1.904l-2.8 1.376c-.181-.405-.405-.699-.672-.88a1.435 1.435 0 0 0-.848-.272c-.267 0-.517.064-.752.192-.224.128-.405.32-.544.576-.128.245-.192.56-.192.944 0 .384.064.704.192.96.139.256.32.448.544.576.235.128.485.192.752.192.31 0 .592-.09.848-.272.267-.181.491-.475.672-.88l2.8 1.376c-.288.81-.811 1.445-1.568 1.904-.757.459-1.669.688-2.736.688Zm7.393-.16v-6.704l.784.768h-3.456v-2.816h8.944v2.816h-3.456l.784-.768V22h-3.6Zm12.416 0v-1.552l-.256-.416v-2.944c0-.427-.134-.752-.4-.976-.256-.224-.678-.336-1.264-.336-.395 0-.795.064-1.2.192a3.24 3.24 0 0 0-1.04.496l-1.152-2.384c.512-.32 1.125-.565 1.84-.736a8.999 8.999 0 0 1 2.096-.256c1.504 0 2.666.336 3.488 1.008.832.672 1.248 1.739 1.248 3.2V22h-3.36Zm-2.48.16c-.715 0-1.312-.123-1.792-.368s-.843-.57-1.088-.976a2.653 2.653 0 0 1-.368-1.376c0-.565.144-1.045.432-1.44.288-.395.725-.693 1.312-.896.597-.203 1.349-.304 2.256-.304h1.824v1.744h-1.248c-.384 0-.667.064-.848.192-.171.117-.256.299-.256.544 0 .203.074.373.224.512.16.128.373.192.64.192.245 0 .469-.064.672-.192.213-.139.368-.352.464-.64l.464 1.072c-.139.65-.432 1.136-.88 1.456-.448.32-1.051.48-1.808.48ZM16.056 2.024l-4.726 9.765 4.799 4.182 4.657-4.182-4.73-9.765Z" fill="#FAA520"/><path d="m3.213 6.863-.367 11.773 13.28 11.34 6.664-5.834L3.213 6.863Z" fill="#F78F28"/><path d="M29.153 18.64V6.726l-11.9 10.507 6.843 5.798 5.057-4.391Z" fill="#E18026"/></svg>