<svg width="124" height="32" viewBox="0 0 124 32" fill="none" xmlns="http://www.w3.org/2000/svg">
<path d="M49.872 22L47.088 16.752L50.096 14.992L54.128 22H49.872ZM42.896 22V10.8H46.672V22H42.896ZM45.584 17.952V14.976H49.824V17.952H45.584ZM50.464 16.8L46.992 16.448L50.208 10.8H54.144L50.464 16.8ZM54.5224 10.784H58.8424L60.4744 13.424L62.1064 10.784H66.4744L62.8424 16.128L66.8104 22H62.3624L60.4744 19.104L58.6184 22H54.2824L58.2184 16.304L54.5224 10.784ZM72.6483 22V10.8H78.3283C79.7149 10.8 80.7869 11.056 81.5443 11.568C82.3123 12.08 82.6963 12.8 82.6963 13.728C82.6963 14.6347 82.3443 15.3547 81.6403 15.888C80.9363 16.4107 79.9869 16.672 78.7923 16.672L79.1123 15.808C80.3816 15.808 81.3789 16.0587 82.1043 16.56C82.8296 17.0613 83.1923 17.792 83.1923 18.752C83.1923 19.744 82.7976 20.5333 82.0083 21.12C81.2189 21.7067 80.0936 22 78.6323 22H72.6483ZM76.3602 19.36H78.4563C78.7656 19.36 78.9949 19.2853 79.1443 19.136C79.3043 18.976 79.3843 18.752 79.3843 18.464C79.3843 18.176 79.3043 17.9627 79.1443 17.824C78.9949 17.6747 78.7656 17.6 78.4563 17.6H76.3602V19.36ZM76.3602 15.104H77.9603C78.2803 15.104 78.5149 15.0347 78.6643 14.896C78.8136 14.7573 78.8883 14.5547 78.8883 14.288C78.8883 14.0107 78.8136 13.8027 78.6643 13.664C78.5149 13.5147 78.2803 13.44 77.9603 13.44H76.3602V15.104ZM89.1149 22.16C88.0482 22.16 87.1149 21.9627 86.3149 21.568C85.5255 21.1733 84.9122 20.6347 84.4749 19.952C84.0375 19.2587 83.8189 18.48 83.8189 17.616C83.8189 16.7307 84.0322 15.9467 84.4589 15.264C84.8962 14.5813 85.4882 14.048 86.2349 13.664C86.9922 13.28 87.8402 13.088 88.7789 13.088C89.6429 13.088 90.4375 13.2587 91.1629 13.6C91.8989 13.9413 92.4855 14.448 92.9229 15.12C93.3709 15.792 93.5949 16.624 93.5949 17.616C93.5949 17.744 93.5895 17.888 93.5789 18.048C93.5682 18.1973 93.5575 18.336 93.5469 18.464H86.8109V16.72H91.6269L90.2669 17.184C90.2669 16.8427 90.2029 16.5547 90.0749 16.32C89.9575 16.0747 89.7922 15.888 89.5789 15.76C89.3655 15.6213 89.1095 15.552 88.8109 15.552C88.5122 15.552 88.2509 15.6213 88.0269 15.76C87.8135 15.888 87.6482 16.0747 87.5309 16.32C87.4135 16.5547 87.3549 16.8427 87.3549 17.184V17.728C87.3549 18.1013 87.4295 18.4213 87.5789 18.688C87.7282 18.9547 87.9415 19.1573 88.2189 19.296C88.4962 19.424 88.8322 19.488 89.2269 19.488C89.6322 19.488 89.9629 19.4347 90.2189 19.328C90.4855 19.2213 90.7629 19.0613 91.0509 18.848L92.9389 20.752C92.5122 21.2107 91.9842 21.5627 91.3549 21.808C90.7362 22.0427 89.9895 22.16 89.1149 22.16ZM99.4869 22.16C98.4842 22.16 97.5935 21.968 96.8149 21.584C96.0362 21.2 95.4229 20.6667 94.9749 19.984C94.5375 19.2907 94.3189 18.5013 94.3189 17.616C94.3189 16.7307 94.5375 15.9467 94.9749 15.264C95.4229 14.5813 96.0362 14.048 96.8149 13.664C97.5935 13.28 98.4842 13.088 99.4869 13.088C100.554 13.088 101.466 13.3173 102.223 13.776C102.98 14.2347 103.503 14.8693 103.791 15.68L100.991 17.056C100.81 16.6507 100.586 16.3573 100.319 16.176C100.063 15.9947 99.7802 15.904 99.4709 15.904C99.2042 15.904 98.9535 15.968 98.7189 16.096C98.4949 16.224 98.3135 16.416 98.1749 16.672C98.0469 16.9173 97.9829 17.232 97.9829 17.616C97.9829 18 98.0469 18.32 98.1749 18.576C98.3135 18.832 98.4949 19.024 98.7189 19.152C98.9535 19.28 99.2042 19.344 99.4709 19.344C99.7802 19.344 100.063 19.2533 100.319 19.072C100.586 18.8907 100.81 18.5973 100.991 18.192L103.791 19.568C103.503 20.3787 102.98 21.0133 102.223 21.472C101.466 21.9307 100.554 22.16 99.4869 22.16ZM106.88 22V15.296L107.664 16.064H104.208V13.248H113.152V16.064H109.696L110.48 15.296V22H106.88ZM119.296 22V20.448L119.04 20.032V17.088C119.04 16.6613 118.906 16.336 118.64 16.112C118.384 15.888 117.962 15.776 117.376 15.776C116.981 15.776 116.581 15.84 116.176 15.968C115.77 16.0853 115.424 16.2507 115.136 16.464L113.984 14.08C114.496 13.76 115.109 13.5147 115.824 13.344C116.538 13.1733 117.237 13.088 117.92 13.088C119.424 13.088 120.586 13.424 121.408 14.096C122.24 14.768 122.656 15.8347 122.656 17.296V22H119.296ZM116.816 22.16C116.101 22.16 115.504 22.0373 115.024 21.792C114.544 21.5467 114.181 21.2213 113.936 20.816C113.69 20.4 113.568 19.9413 113.568 19.44C113.568 18.8747 113.712 18.3947 114 18C114.288 17.6053 114.725 17.3067 115.312 17.104C115.909 16.9013 116.661 16.8 117.568 16.8H119.392V18.544H118.144C117.76 18.544 117.477 18.608 117.296 18.736C117.125 18.8533 117.04 19.0347 117.04 19.28C117.04 19.4827 117.114 19.6533 117.264 19.792C117.424 19.92 117.637 19.984 117.904 19.984C118.149 19.984 118.373 19.92 118.576 19.792C118.789 19.6533 118.944 19.44 119.04 19.152L119.504 20.224C119.365 20.8747 119.072 21.36 118.624 21.68C118.176 22 117.573 22.16 116.816 22.16Z" fill="#FAA520"/>
<path d="M16.056 2.024L11.33 11.789L16.129 15.971L20.786 11.789L16.056 2.024Z" fill="#FAA520"/>
<path d="M3.21299 6.863L2.84599 18.636L16.126 29.976L22.79 24.142L3.21299 6.863Z" fill="#F78F28"/>
<path d="M29.153 18.64V6.726L17.253 17.233L24.096 23.031L29.153 18.64Z" fill="#E18026"/>
</svg>
